<?xml version="1.0" encoding="UTF-8"?>
<svg version="1.1" xmlns="http://www.w3.org/2000/svg" width="512" height="512">
<path d="M0 0 C6.6 0 13.2 0 20 0 C20.03738281 2.95066406 20.07476562 5.90132812 20.11328125 8.94140625 C20.15955592 11.81428233 20.21076798 14.68703118 20.26245117 17.55981445 C20.29560684 19.54899294 20.32366765 21.53826339 20.34643555 23.52758789 C20.380154 26.39509084 20.43247823 29.26175817 20.48828125 32.12890625 C20.49786613 33.45276085 20.49786613 33.45276085 20.50764465 34.80335999 C20.63529377 40.22258598 21.13575266 44.32515678 24 49 C28.96574002 51.77022489 34.71032955 51.27932107 40.26171875 51.2734375 C42.28841689 51.29373541 44.31510956 51.31458636 46.34179688 51.3359375 C49.51005691 51.35845778 52.67809935 51.37498256 55.84643555 51.38085938 C72.28968301 51.43219239 84.84311644 52.1226637 97.12890625 64.0703125 C106.62297516 74.10640007 108.49572952 84.00421708 108.27734375 97.43359375 C107.794851 109.12624154 101.94080953 117.44242669 93.6875 125.25 C87.27260505 130.76550934 79.94444982 134.08749167 71.43432617 134.15771484 C70.53626755 134.16797699 69.63820892 134.17823914 68.7129364 134.18881226 C67.74934708 134.19611359 66.78575775 134.20341492 65.79296875 134.2109375 C63.7415285 134.23900754 61.69009631 134.26767202 59.63867188 134.296875 C56.41300699 134.33810069 53.18749243 134.37500006 49.96166992 134.40136719 C46.84262223 134.42905599 43.72425299 134.47492722 40.60546875 134.5234375 C39.1691938 134.5283168 39.1691938 134.5283168 37.7039032 134.53329468 C32.07227875 134.63609861 27.95201579 135.23137111 23 138 C20.5943271 142.59264827 20.43180258 147.88654844 20 153 C21.65 153 23.3 153 25 153 C25 162.9 25 172.8 25 183 C101.23 183 177.46 183 256 183 C256 258.9 256 334.8 256 413 C93.64 413 -68.72 413 -236 413 C-236 337.1 -236 261.2 -236 183 C-159.77 183 -83.54 183 -5 183 C-5 173.1 -5 163.2 -5 153 C-3.35 153 -1.7 153 0 153 C-0.06960937 151.91203125 -0.13921875 150.8240625 -0.2109375 149.703125 C-0.69220592 138.91705033 0.34153157 130.64196413 7.640625 122.07421875 C14.75398487 115.37635887 22.93472115 113.40838801 32.44140625 113.4609375 C33.40852036 113.44914459 34.37563446 113.43735168 35.37205505 113.42520142 C38.43570336 113.39017663 41.49866855 113.38079676 44.5625 113.375 C47.62969606 113.35858626 50.69659329 113.33640751 53.76365662 113.30337524 C55.66353168 113.28394805 57.56354297 113.27438802 59.46351624 113.27645874 C67.48684416 113.21237636 74.64560865 112.36593047 81 107 C84.91904423 102.71903876 86.36159929 98.79481555 86.625 93 C86.34765315 87.21220918 85.03764169 83.20303906 81 79 C73.60151408 72.92321485 66.20762007 72.87329847 56.9921875 72.89453125 C55.01561412 72.88106933 53.03905089 72.86604512 51.0625 72.84960938 C47.97522692 72.82686568 44.88910282 72.81244286 41.80175781 72.82495117 C18.04262737 72.8954587 18.04262737 72.8954587 8.10693359 64.37695312 C0.90139898 56.80139865 -0.58993685 48.29380889 -0.390625 38.18359375 C-0.38496521 37.08652603 -0.37930542 35.98945831 -0.37347412 34.85914612 C-0.35123774 31.38480394 -0.30106382 27.91152593 -0.25 24.4375 C-0.2299186 22.06967644 -0.21167072 19.70183658 -0.1953125 17.33398438 C-0.15141448 11.55558495 -0.08247449 5.77797236 0 0 Z " fill="#6E83B7" transform="translate(246,49)"/>
<path d="M0 0 C6.6 0 13.2 0 20 0 C20.03738281 2.95066406 20.07476562 5.90132812 20.11328125 8.94140625 C20.15955592 11.81428233 20.21076798 14.68703118 20.26245117 17.55981445 C20.29560684 19.54899294 20.32366765 21.53826339 20.34643555 23.52758789 C20.380154 26.39509084 20.43247823 29.26175817 20.48828125 32.12890625 C20.49467117 33.01147598 20.5010611 33.89404572 20.50764465 34.80335999 C20.63529377 40.22258598 21.13575266 44.32515678 24 49 C28.96574002 51.77022489 34.71032955 51.27932107 40.26171875 51.2734375 C42.28841689 51.29373541 44.31510956 51.31458636 46.34179688 51.3359375 C49.51005691 51.35845778 52.67809935 51.37498256 55.84643555 51.38085938 C72.28968301 51.43219239 84.84311644 52.1226637 97.12890625 64.0703125 C106.62297516 74.10640007 108.49572952 84.00421708 108.27734375 97.43359375 C107.794851 109.12624154 101.94080953 117.44242669 93.6875 125.25 C87.27260505 130.76550934 79.94444982 134.08749167 71.43432617 134.15771484 C70.53626755 134.16797699 69.63820892 134.17823914 68.7129364 134.18881226 C67.74934708 134.19611359 66.78575775 134.20341492 65.79296875 134.2109375 C63.7415285 134.23900754 61.69009631 134.26767202 59.63867188 134.296875 C56.41300699 134.33810069 53.18749243 134.37500006 49.96166992 134.40136719 C46.84262223 134.42905599 43.72425299 134.47492722 40.60546875 134.5234375 C39.1691938 134.5283168 39.1691938 134.5283168 37.7039032 134.53329468 C32.07227875 134.63609861 27.95201579 135.23137111 23 138 C20.5943271 142.59264827 20.43180258 147.88654844 20 153 C21.65 153 23.3 153 25 153 C25 162.9 25 172.8 25 183 C15.1 183 5.2 183 -5 183 C-5 173.1 -5 163.2 -5 153 C-3.35 153 -1.7 153 0 153 C-0.06960937 151.91203125 -0.13921875 150.8240625 -0.2109375 149.703125 C-0.69220592 138.91705033 0.34153157 130.64196413 7.640625 122.07421875 C14.75398487 115.37635887 22.93472115 113.40838801 32.44140625 113.4609375 C33.40852036 113.44914459 34.37563446 113.43735168 35.37205505 113.42520142 C38.43570336 113.39017663 41.49866855 113.38079676 44.5625 113.375 C47.62969606 113.35858626 50.69659329 113.33640751 53.76365662 113.30337524 C55.66353168 113.28394805 57.56354297 113.27438802 59.46351624 113.27645874 C67.48684416 113.21237636 74.64560865 112.36593047 81 107 C84.91904423 102.71903876 86.36159929 98.79481555 86.625 93 C86.34765315 87.21220918 85.03764169 83.20303906 81 79 C73.60151408 72.92321485 66.20762007 72.87329847 56.9921875 72.89453125 C55.01561412 72.88106933 53.03905089 72.86604512 51.0625 72.84960938 C47.97522692 72.82686568 44.88910282 72.81244286 41.80175781 72.82495117 C18.04262737 72.8954587 18.04262737 72.8954587 8.10693359 64.37695312 C0.90139898 56.80139865 -0.58993685 48.29380889 -0.390625 38.18359375 C-0.38496521 37.08652603 -0.37930542 35.98945831 -0.37347412 34.85914612 C-0.35123774 31.38480394 -0.30106382 27.91152593 -0.25 24.4375 C-0.2299186 22.06967644 -0.21167072 19.70183658 -0.1953125 17.33398438 C-0.15141448 11.55558495 -0.08247449 5.77797236 0 0 Z " fill="#6D83B7" transform="translate(246,49)"/>
<path d="M0 0 C73.26 0 146.52 0 222 0 C222 9.9 222 19.8 222 30 C148.74 30 75.48 30 0 30 C0 20.1 0 10.2 0 0 Z " fill="#FFB0AA" transform="translate(122,412)"/>
<path d="M0 0 C12.54 0 25.08 0 38 0 C38 23.1 38 46.2 38 70 C15.23 70 -7.54 70 -31 70 C-31 60.1 -31 50.2 -31 40 C-20.77 40 -10.54 40 0 40 C0 26.8 0 13.6 0 0 Z " fill="#98CA69" transform="translate(398,292)"/>
<path d="M0 0 C21.12 0 42.24 0 64 0 C64 9.9 64 19.8 64 30 C42.88 30 21.76 30 0 30 C0 20.1 0 10.2 0 0 Z " fill="#466089" transform="translate(30,372)"/>
<path d="M0 0 C18.48 0 36.96 0 56 0 C56 9.9 56 19.8 56 30 C37.52 30 19.04 30 0 30 C0 20.1 0 10.2 0 0 Z " fill="#466089" transform="translate(334,372)"/>
<path d="M0 0 C17.16 0 34.32 0 52 0 C52 9.9 52 19.8 52 30 C34.84 30 17.68 30 0 30 C0 20.1 0 10.2 0 0 Z " fill="#466089" transform="translate(430,252)"/>
<path d="M0 0 C16.5 0 33 0 50 0 C50 9.9 50 19.8 50 30 C33.5 30 17 30 0 30 C0 20.1 0 10.2 0 0 Z " fill="#466089" transform="translate(30,332)"/>
<path d="M0 0 C11.88 0 23.76 0 36 0 C36 9.9 36 19.8 36 30 C24.12 30 12.24 30 0 30 C0 20.1 0 10.2 0 0 Z " fill="#FFE352" transform="translate(446,412)"/>
<path d="M0 0 C11.88 0 23.76 0 36 0 C36 9.9 36 19.8 36 30 C24.12 30 12.24 30 0 30 C0 20.1 0 10.2 0 0 Z " fill="#FFE352" transform="translate(400,412)"/>
<path d="M0 0 C11.88 0 23.76 0 36 0 C36 9.9 36 19.8 36 30 C24.12 30 12.24 30 0 30 C0 20.1 0 10.2 0 0 Z " fill="#FFE352" transform="translate(354,412)"/>
<path d="M0 0 C11.88 0 23.76 0 36 0 C36 9.9 36 19.8 36 30 C24.12 30 12.24 30 0 30 C0 20.1 0 10.2 0 0 Z " fill="#466089" transform="translate(76,412)"/>
<path d="M0 0 C11.88 0 23.76 0 36 0 C36 9.9 36 19.8 36 30 C24.12 30 12.24 30 0 30 C0 20.1 0 10.2 0 0 Z " fill="#466089" transform="translate(30,412)"/>
<path d="M0 0 C11.88 0 23.76 0 36 0 C36 9.9 36 19.8 36 30 C24.12 30 12.24 30 0 30 C0 20.1 0 10.2 0 0 Z " fill="#466089" transform="translate(446,372)"/>
<path d="M0 0 C11.88 0 23.76 0 36 0 C36 9.9 36 19.8 36 30 C24.12 30 12.24 30 0 30 C0 20.1 0 10.2 0 0 Z " fill="#FFE352" transform="translate(400,372)"/>
<path d="M0 0 C11.88 0 23.76 0 36 0 C36 9.9 36 19.8 36 30 C24.12 30 12.24 30 0 30 C0 20.1 0 10.2 0 0 Z " fill="#466089" transform="translate(288,372)"/>
<path d="M0 0 C11.88 0 23.76 0 36 0 C36 9.9 36 19.8 36 30 C24.12 30 12.24 30 0 30 C0 20.1 0 10.2 0 0 Z " fill="#466089" transform="translate(242,372)"/>
<path d="M0 0 C11.88 0 23.76 0 36 0 C36 9.9 36 19.8 36 30 C24.12 30 12.24 30 0 30 C0 20.1 0 10.2 0 0 Z " fill="#466089" transform="translate(196,372)"/>
<path d="M0 0 C11.88 0 23.76 0 36 0 C36 9.9 36 19.8 36 30 C24.12 30 12.24 30 0 30 C0 20.1 0 10.2 0 0 Z " fill="#466089" transform="translate(150,372)"/>
<path d="M0 0 C11.88 0 23.76 0 36 0 C36 9.9 36 19.8 36 30 C24.12 30 12.24 30 0 30 C0 20.1 0 10.2 0 0 Z " fill="#466089" transform="translate(104,372)"/>
<path d="M0 0 C11.88 0 23.76 0 36 0 C36 9.9 36 19.8 36 30 C24.12 30 12.24 30 0 30 C0 20.1 0 10.2 0 0 Z " fill="#466089" transform="translate(446,332)"/>
<path d="M0 0 C11.88 0 23.76 0 36 0 C36 9.9 36 19.8 36 30 C24.12 30 12.24 30 0 30 C0 20.1 0 10.2 0 0 Z " fill="#466089" transform="translate(320,332)"/>
<path d="M0 0 C11.88 0 23.76 0 36 0 C36 9.9 36 19.8 36 30 C24.12 30 12.24 30 0 30 C0 20.1 0 10.2 0 0 Z " fill="#466089" transform="translate(274,332)"/>
<path d="M0 0 C11.88 0 23.76 0 36 0 C36 9.9 36 19.8 36 30 C24.12 30 12.24 30 0 30 C0 20.1 0 10.2 0 0 Z " fill="#466089" transform="translate(228,332)"/>
<path d="M0 0 C11.88 0 23.76 0 36 0 C36 9.9 36 19.8 36 30 C24.12 30 12.24 30 0 30 C0 20.1 0 10.2 0 0 Z " fill="#FFB0AA" transform="translate(182,332)"/>
<path d="M0 0 C11.88 0 23.76 0 36 0 C36 9.9 36 19.8 36 30 C24.12 30 12.24 30 0 30 C0 20.1 0 10.2 0 0 Z " fill="#FFB0AA" transform="translate(136,332)"/>
<path d="M0 0 C11.88 0 23.76 0 36 0 C36 9.9 36 19.8 36 30 C24.12 30 12.24 30 0 30 C0 20.1 0 10.2 0 0 Z " fill="#FFB0AA" transform="translate(90,332)"/>
<path d="M0 0 C11.88 0 23.76 0 36 0 C36 9.9 36 19.8 36 30 C24.12 30 12.24 30 0 30 C0 20.1 0 10.2 0 0 Z " fill="#466089" transform="translate(446,292)"/>
<path d="M0 0 C11.88 0 23.76 0 36 0 C36 9.9 36 19.8 36 30 C24.12 30 12.24 30 0 30 C0 20.1 0 10.2 0 0 Z " fill="#466089" transform="translate(352,292)"/>
<path d="M0 0 C11.88 0 23.76 0 36 0 C36 9.9 36 19.8 36 30 C24.12 30 12.24 30 0 30 C0 20.1 0 10.2 0 0 Z " fill="#466089" transform="translate(306,292)"/>
<path d="M0 0 C11.88 0 23.76 0 36 0 C36 9.9 36 19.8 36 30 C24.12 30 12.24 30 0 30 C0 20.1 0 10.2 0 0 Z " fill="#466089" transform="translate(260,292)"/>
<path d="M0 0 C11.88 0 23.76 0 36 0 C36 9.9 36 19.8 36 30 C24.12 30 12.24 30 0 30 C0 20.1 0 10.2 0 0 Z " fill="#466089" transform="translate(214,292)"/>
<path d="M0 0 C11.88 0 23.76 0 36 0 C36 9.9 36 19.8 36 30 C24.12 30 12.24 30 0 30 C0 20.1 0 10.2 0 0 Z " fill="#466089" transform="translate(168,292)"/>
<path d="M0 0 C11.88 0 23.76 0 36 0 C36 9.9 36 19.8 36 30 C24.12 30 12.24 30 0 30 C0 20.1 0 10.2 0 0 Z " fill="#FFB0AA" transform="translate(122,292)"/>
<path d="M0 0 C11.88 0 23.76 0 36 0 C36 9.9 36 19.8 36 30 C24.12 30 12.24 30 0 30 C0 20.1 0 10.2 0 0 Z " fill="#466089" transform="translate(76,292)"/>
<path d="M0 0 C11.88 0 23.76 0 36 0 C36 9.9 36 19.8 36 30 C24.12 30 12.24 30 0 30 C0 20.1 0 10.2 0 0 Z " fill="#466089" transform="translate(30,292)"/>
<path d="M0 0 C9.9 0 19.8 0 30 0 C30 9.9 30 19.8 30 30 C20.1 30 10.2 30 0 30 C0 20.1 0 10.2 0 0 Z " fill="#466089" transform="translate(390,252)"/>
<path d="M0 0 C9.9 0 19.8 0 30 0 C30 9.9 30 19.8 30 30 C20.1 30 10.2 30 0 30 C0 20.1 0 10.2 0 0 Z " fill="#466089" transform="translate(350,252)"/>
<path d="M0 0 C9.9 0 19.8 0 30 0 C30 9.9 30 19.8 30 30 C20.1 30 10.2 30 0 30 C0 20.1 0 10.2 0 0 Z " fill="#466089" transform="translate(310,252)"/>
<path d="M0 0 C9.9 0 19.8 0 30 0 C30 9.9 30 19.8 30 30 C20.1 30 10.2 30 0 30 C0 20.1 0 10.2 0 0 Z " fill="#466089" transform="translate(270,252)"/>
<path d="M0 0 C9.9 0 19.8 0 30 0 C30 9.9 30 19.8 30 30 C20.1 30 10.2 30 0 30 C0 20.1 0 10.2 0 0 Z " fill="#466089" transform="translate(230,252)"/>
<path d="M0 0 C9.9 0 19.8 0 30 0 C30 9.9 30 19.8 30 30 C20.1 30 10.2 30 0 30 C0 20.1 0 10.2 0 0 Z " fill="#466089" transform="translate(190,252)"/>
<path d="M0 0 C9.9 0 19.8 0 30 0 C30 9.9 30 19.8 30 30 C20.1 30 10.2 30 0 30 C0 20.1 0 10.2 0 0 Z " fill="#466089" transform="translate(150,252)"/>
<path d="M0 0 C9.9 0 19.8 0 30 0 C30 9.9 30 19.8 30 30 C20.1 30 10.2 30 0 30 C0 20.1 0 10.2 0 0 Z " fill="#466089" transform="translate(110,252)"/>
<path d="M0 0 C9.9 0 19.8 0 30 0 C30 9.9 30 19.8 30 30 C20.1 30 10.2 30 0 30 C0 20.1 0 10.2 0 0 Z " fill="#466089" transform="translate(70,252)"/>
<path d="M0 0 C9.9 0 19.8 0 30 0 C30 9.9 30 19.8 30 30 C20.1 30 10.2 30 0 30 C0 20.1 0 10.2 0 0 Z " fill="#466089" transform="translate(30,252)"/>
<path d="M0 0 C9.9 0 19.8 0 30 0 C30 9.9 30 19.8 30 30 C20.1 30 10.2 30 0 30 C0 20.1 0 10.2 0 0 Z " fill="#466089" transform="translate(241,202)"/>
</svg>
